<mxfile host="app.diagrams.net" agent="Mozilla/5.0 (Windows NT 10.0; Win64; x64) AppleWebKit/537.36 (KHTML, like Gecko) Chrome/134.0.0.0 Safari/537.36 OPR/119.0.0.0" version="27.1.6">
  <diagram name="Page-1" id="4EZCUcc8CXvuuHVfgvWY">
    <mxGraphModel dx="1372" dy="743" grid="1" gridSize="10" guides="1" tooltips="1" connect="1" arrows="1" fold="1" page="1" pageScale="1" pageWidth="827" pageHeight="1169" math="0" shadow="0">
      <root>
        <mxCell id="0" />
        <mxCell id="1" parent="0" />
        <mxCell id="kpfi1jkZ4rjZz64elLAD-5" style="edgeStyle=orthogonalEdgeStyle;rounded=0;orthogonalLoop=1;jettySize=auto;html=1;exitX=0.5;exitY=1;exitDx=0;exitDy=0;entryX=0.5;entryY=0;entryDx=0;entryDy=0;" edge="1" parent="1" source="kpfi1jkZ4rjZz64elLAD-1" target="kpfi1jkZ4rjZz64elLAD-4">
          <mxGeometry relative="1" as="geometry" />
        </mxCell>
        <mxCell id="kpfi1jkZ4rjZz64elLAD-1" value="Current prompt p" style="rounded=1;whiteSpace=wrap;html=1;" vertex="1" parent="1">
          <mxGeometry x="200" y="150" width="120" height="60" as="geometry" />
        </mxCell>
        <mxCell id="kpfi1jkZ4rjZz64elLAD-7" style="edgeStyle=orthogonalEdgeStyle;rounded=0;orthogonalLoop=1;jettySize=auto;html=1;exitX=0.5;exitY=1;exitDx=0;exitDy=0;entryX=1;entryY=0.5;entryDx=0;entryDy=0;" edge="1" parent="1" source="kpfi1jkZ4rjZz64elLAD-2" target="kpfi1jkZ4rjZz64elLAD-3">
          <mxGeometry relative="1" as="geometry" />
        </mxCell>
        <mxCell id="kpfi1jkZ4rjZz64elLAD-12" style="edgeStyle=orthogonalEdgeStyle;rounded=0;orthogonalLoop=1;jettySize=auto;html=1;exitX=0.5;exitY=1;exitDx=0;exitDy=0;entryX=1;entryY=0.5;entryDx=0;entryDy=0;" edge="1" parent="1" source="kpfi1jkZ4rjZz64elLAD-2" target="kpfi1jkZ4rjZz64elLAD-11">
          <mxGeometry relative="1" as="geometry" />
        </mxCell>
        <mxCell id="kpfi1jkZ4rjZz64elLAD-2" value="Training Data" style="ellipse;whiteSpace=wrap;html=1;" vertex="1" parent="1">
          <mxGeometry x="400" y="10" width="120" height="80" as="geometry" />
        </mxCell>
        <mxCell id="kpfi1jkZ4rjZz64elLAD-6" style="edgeStyle=orthogonalEdgeStyle;rounded=0;orthogonalLoop=1;jettySize=auto;html=1;exitX=0;exitY=0.5;exitDx=0;exitDy=0;entryX=1;entryY=0.5;entryDx=0;entryDy=0;" edge="1" parent="1" source="kpfi1jkZ4rjZz64elLAD-3" target="kpfi1jkZ4rjZz64elLAD-4">
          <mxGeometry relative="1" as="geometry" />
        </mxCell>
        <mxCell id="kpfi1jkZ4rjZz64elLAD-3" value="X" style="rounded=0;whiteSpace=wrap;html=1;fillColor=#fff2cc;strokeColor=#d6b656;" vertex="1" parent="1">
          <mxGeometry x="360" y="240" width="40" height="40" as="geometry" />
        </mxCell>
        <mxCell id="kpfi1jkZ4rjZz64elLAD-14" style="edgeStyle=orthogonalEdgeStyle;rounded=0;orthogonalLoop=1;jettySize=auto;html=1;exitX=0.5;exitY=1;exitDx=0;exitDy=0;entryX=0.5;entryY=0;entryDx=0;entryDy=0;" edge="1" parent="1" source="kpfi1jkZ4rjZz64elLAD-4" target="kpfi1jkZ4rjZz64elLAD-10">
          <mxGeometry relative="1" as="geometry" />
        </mxCell>
        <mxCell id="kpfi1jkZ4rjZz64elLAD-4" value="Prompt p&lt;sub&gt;&amp;nbsp;&lt;/sub&gt;with X" style="rounded=0;whiteSpace=wrap;html=1;fillColor=#d5e8d4;strokeColor=#82b366;" vertex="1" parent="1">
          <mxGeometry x="200" y="230" width="120" height="60" as="geometry" />
        </mxCell>
        <mxCell id="kpfi1jkZ4rjZz64elLAD-9" style="edgeStyle=orthogonalEdgeStyle;rounded=0;orthogonalLoop=1;jettySize=auto;html=1;exitX=0.5;exitY=1;exitDx=0;exitDy=0;" edge="1" parent="1" source="kpfi1jkZ4rjZz64elLAD-8" target="kpfi1jkZ4rjZz64elLAD-1">
          <mxGeometry relative="1" as="geometry" />
        </mxCell>
        <mxCell id="kpfi1jkZ4rjZz64elLAD-8" value="Initial Prompt p&lt;sub&gt;0&lt;/sub&gt;" style="rounded=1;whiteSpace=wrap;html=1;" vertex="1" parent="1">
          <mxGeometry x="200" y="20" width="120" height="60" as="geometry" />
        </mxCell>
        <mxCell id="kpfi1jkZ4rjZz64elLAD-20" style="edgeStyle=orthogonalEdgeStyle;rounded=0;orthogonalLoop=1;jettySize=auto;html=1;exitX=0;exitY=0.5;exitDx=0;exitDy=0;entryX=1;entryY=0.5;entryDx=0;entryDy=0;" edge="1" parent="1" source="kpfi1jkZ4rjZz64elLAD-10" target="kpfi1jkZ4rjZz64elLAD-19">
          <mxGeometry relative="1" as="geometry" />
        </mxCell>
        <mxCell id="kpfi1jkZ4rjZz64elLAD-10" value="Whats wrong with the prompt, expecting Y" style="rounded=0;whiteSpace=wrap;html=1;fillColor=#d5e8d4;strokeColor=#82b366;" vertex="1" parent="1">
          <mxGeometry x="200" y="320" width="120" height="60" as="geometry" />
        </mxCell>
        <mxCell id="kpfi1jkZ4rjZz64elLAD-13" style="edgeStyle=orthogonalEdgeStyle;rounded=0;orthogonalLoop=1;jettySize=auto;html=1;exitX=0;exitY=0.5;exitDx=0;exitDy=0;entryX=1;entryY=0.5;entryDx=0;entryDy=0;" edge="1" parent="1" source="kpfi1jkZ4rjZz64elLAD-11" target="kpfi1jkZ4rjZz64elLAD-10">
          <mxGeometry relative="1" as="geometry" />
        </mxCell>
        <mxCell id="kpfi1jkZ4rjZz64elLAD-11" value="Y" style="rounded=0;whiteSpace=wrap;html=1;fillColor=#fff2cc;strokeColor=#d6b656;" vertex="1" parent="1">
          <mxGeometry x="360" y="330" width="40" height="40" as="geometry" />
        </mxCell>
        <mxCell id="kpfi1jkZ4rjZz64elLAD-15" value="Output prompt p*" style="rounded=1;whiteSpace=wrap;html=1;" vertex="1" parent="1">
          <mxGeometry x="40" y="20" width="120" height="60" as="geometry" />
        </mxCell>
        <mxCell id="kpfi1jkZ4rjZz64elLAD-17" value="Yes" style="edgeStyle=orthogonalEdgeStyle;rounded=0;orthogonalLoop=1;jettySize=auto;html=1;exitX=0.5;exitY=0;exitDx=0;exitDy=0;entryX=0.5;entryY=1;entryDx=0;entryDy=0;" edge="1" parent="1" source="kpfi1jkZ4rjZz64elLAD-16" target="kpfi1jkZ4rjZz64elLAD-15">
          <mxGeometry relative="1" as="geometry" />
        </mxCell>
        <mxCell id="kpfi1jkZ4rjZz64elLAD-18" value="No" style="edgeStyle=orthogonalEdgeStyle;rounded=0;orthogonalLoop=1;jettySize=auto;html=1;exitX=1;exitY=0.5;exitDx=0;exitDy=0;" edge="1" parent="1" source="kpfi1jkZ4rjZz64elLAD-16" target="kpfi1jkZ4rjZz64elLAD-1">
          <mxGeometry relative="1" as="geometry" />
        </mxCell>
        <mxCell id="kpfi1jkZ4rjZz64elLAD-16" value="Maximum Iterations?" style="rhombus;whiteSpace=wrap;html=1;" vertex="1" parent="1">
          <mxGeometry x="60" y="140" width="80" height="80" as="geometry" />
        </mxCell>
        <mxCell id="kpfi1jkZ4rjZz64elLAD-21" style="edgeStyle=orthogonalEdgeStyle;rounded=0;orthogonalLoop=1;jettySize=auto;html=1;exitX=0.5;exitY=0;exitDx=0;exitDy=0;entryX=0.5;entryY=1;entryDx=0;entryDy=0;" edge="1" parent="1" source="kpfi1jkZ4rjZz64elLAD-19" target="kpfi1jkZ4rjZz64elLAD-16">
          <mxGeometry relative="1" as="geometry" />
        </mxCell>
        <mxCell id="kpfi1jkZ4rjZz64elLAD-19" value="Optimize p" style="rounded=0;whiteSpace=wrap;html=1;fillColor=#d5e8d4;strokeColor=#82b366;" vertex="1" parent="1">
          <mxGeometry x="40" y="320" width="120" height="60" as="geometry" />
        </mxCell>
      </root>
    </mxGraphModel>
  </diagram>
</mxfile>
